<?xml version="1.0" standalone="no"?>
<!DOCTYPE svg PUBLIC "-//W3C//DTD SVG 20010904//EN"
 "http://www.w3.org/TR/2001/REC-SVG-20010904/DTD/svg10.dtd">
<svg version="1.0" xmlns="http://www.w3.org/2000/svg"
 width="196.000000pt" height="234.000000pt" viewBox="0 0 196.000000 234.000000"
 preserveAspectRatio="xMidYMid meet">
<metadata>
Created by potrace 1.16, written by Peter Selinger 2001-2019
</metadata>
<g transform="translate(0.000000,234.000000) scale(0.100000,-0.100000)"
fill="#000000" stroke="none">
<path d="M210 2073 c0 -87 14 -135 58 -201 47 -72 116 -116 237 -153 143 -43
183 -59 246 -96 102 -59 158 -144 144 -219 -14 -77 -134 -164 -224 -164 -90 1
-176 58 -217 145 -33 70 -31 128 6 201 16 32 30 62 30 65 0 4 -20 14 -44 23
-23 9 -68 32 -99 50 -62 37 -61 37 -94 -29 -77 -155 -44 -327 88 -456 81 -80
142 -102 280 -103 l105 -1 105 -109 c141 -147 136 -147 281 3 l108 113 68 -6
c127 -13 228 22 316 108 130 126 160 315 76 463 l-30 52 -57 -34 c-32 -18 -78
-41 -103 -51 -25 -9 -47 -19 -49 -20 -2 -2 6 -15 17 -29 33 -42 55 -121 48
-171 -20 -151 -177 -251 -312 -199 -53 20 -118 74 -140 116 -40 79 11 177 133
253 52 32 120 58 238 92 110 31 157 58 216 121 60 64 89 141 89 235 l0 72 -27
-26 c-82 -78 -221 -134 -408 -164 -131 -21 -481 -24 -615 -5 -199 28 -348 83
-428 158 -19 18 -36 33 -38 33 -2 0 -4 -30 -4 -67z m174 -80 c136 -55 428 -90
671 -80 315 14 504 59 616 148 42 33 48 26 23 -27 -59 -124 -394 -204 -799
-191 -343 11 -580 84 -644 198 -12 20 -21 39 -21 43 0 3 22 -11 50 -32 27 -20
74 -47 104 -59z m-96 -377 c-19 -140 20 -262 116 -364 53 -58 36 -57 -36 1
-82 65 -122 166 -116 285 4 65 31 163 42 151 2 -2 -1 -35 -6 -73z m732 -372
c28 -26 50 -52 50 -58 0 -15 -91 -146 -101 -146 -10 0 -99 132 -99 146 0 8 90
104 98 104 1 0 25 -21 52 -46z"/>
<path d="M650 1552 c0 -41 -30 -64 -77 -60 -37 3 -38 2 -41 -34 -5 -56 38 -99
106 -106 60 -5 93 11 118 59 29 57 -1 138 -58 158 -44 16 -48 14 -48 -17z"/>
<path d="M1270 1545 c0 -42 -27 -60 -76 -52 -29 5 -35 3 -40 -17 -8 -35 20
-92 55 -110 36 -19 90 -21 126 -4 74 34 71 164 -5 203 -47 24 -60 20 -60 -20z"/>
<path d="M198 1284 c-86 -124 -103 -276 -49 -429 22 -63 87 -182 126 -229 l24
-30 -5 80 c-5 78 -5 79 11 45 8 -19 31 -56 51 -84 20 -27 42 -68 50 -91 25
-69 92 -174 152 -235 252 -257 632 -249 875 20 61 67 125 181 153 274 10 33
29 80 42 105 l24 45 -7 -79 -6 -79 24 29 c36 44 91 142 122 219 22 55 29 91
32 165 5 108 -12 175 -69 263 l-32 49 -20 -28 c-50 -70 -113 -126 -175 -157
-60 -29 -75 -32 -179 -35 l-113 -4 -107 -109 c-104 -106 -108 -109 -151 -109
-44 0 -48 3 -154 109 l-109 109 -112 3 c-102 4 -117 7 -177 36 -62 31 -141
102 -179 162 l-16 23 -26 -38z m1383 -586 c-83 -326 -315 -537 -591 -538 -274
0 -491 186 -589 504 -29 93 -26 128 4 43 37 -109 103 -214 182 -292 314 -313
794 -192 962 244 16 42 33 89 36 104 4 15 10 26 12 23 3 -2 -5 -42 -16 -88z"/>
</g>
</svg>
